<svg width="482" height="73" viewBox="0 0 482 73" fill="none" xmlns="http://www.w3.org/2000/svg">
<path d="M481.414 59.4142C482.195 58.6332 482.195 57.3668 481.414 56.5858L468.686 43.8579C467.905 43.0768 466.639 43.0768 465.858 43.8579C465.077 44.6389 465.077 45.9052 465.858 46.6863L477.171 58L465.858 69.3137C465.077 70.0948 465.077 71.3611 465.858 72.1421C466.639 72.9232 467.905 72.9232 468.686 72.1421L481.414 59.4142ZM4.03906 60H480V56H4.03906V60Z" fill="#292929"/>
<rect y="48" width="4" height="19" rx="2" fill="#292929"/>
<circle cx="104.5" cy="58.5" r="13.5" fill="#292929"/>
<circle cx="382.5" cy="57.5" r="13.5" fill="#292929"/>
<circle cx="243.5" cy="58.5" r="13.5" fill="#292929"/>
<path d="M86.7266 20.75V23H75.2891V21.0664L80.8438 15.0078C81.4531 14.3203 81.9336 13.7266 82.2852 13.2266C82.6367 12.7266 82.8828 12.2773 83.0234 11.8789C83.1719 11.4727 83.2461 11.0781 83.2461 10.6953C83.2461 10.1562 83.1445 9.68359 82.9414 9.27734C82.7461 8.86328 82.457 8.53906 82.0742 8.30469C81.6914 8.0625 81.2266 7.94141 80.6797 7.94141C80.0469 7.94141 79.5156 8.07812 79.0859 8.35156C78.6562 8.625 78.332 9.00391 78.1133 9.48828C77.8945 9.96484 77.7852 10.5117 77.7852 11.1289H74.9609C74.9609 10.1367 75.1875 9.23047 75.6406 8.41016C76.0938 7.58203 76.75 6.92578 77.6094 6.44141C78.4688 5.94922 79.5039 5.70312 80.7148 5.70312C81.8555 5.70312 82.8242 5.89453 83.6211 6.27734C84.418 6.66016 85.0234 7.20312 85.4375 7.90625C85.8594 8.60938 86.0703 9.44141 86.0703 10.4023C86.0703 10.9336 85.9844 11.4609 85.8125 11.9844C85.6406 12.5078 85.3945 13.0312 85.0742 13.5547C84.7617 14.0703 84.3906 14.5898 83.9609 15.1133C83.5312 15.6289 83.0586 16.1523 82.543 16.6836L78.8516 20.75H86.7266ZM100.051 13.0391V15.8281C100.051 17.1641 99.918 18.3047 99.6523 19.25C99.3945 20.1875 99.0195 20.9492 98.5273 21.5352C98.0352 22.1211 97.4453 22.5508 96.7578 22.8242C96.0781 23.0977 95.3164 23.2344 94.4727 23.2344C93.8008 23.2344 93.1758 23.1484 92.5977 22.9766C92.0273 22.8047 91.5117 22.5352 91.0508 22.168C90.5898 21.8008 90.1953 21.3281 89.8672 20.75C89.5469 20.1641 89.2969 19.4648 89.1172 18.6523C88.9453 17.8398 88.8594 16.8984 88.8594 15.8281V13.0391C88.8594 11.6953 88.9922 10.5625 89.2578 9.64062C89.5234 8.71094 89.9023 7.95703 90.3945 7.37891C90.8867 6.79297 91.4727 6.36719 92.1523 6.10156C92.8398 5.83594 93.6055 5.70312 94.4492 5.70312C95.1289 5.70312 95.7539 5.78906 96.3242 5.96094C96.9023 6.125 97.418 6.38672 97.8711 6.74609C98.332 7.10547 98.7227 7.57422 99.043 8.15234C99.3711 8.72266 99.6211 9.41406 99.793 10.2266C99.9648 11.0312 100.051 11.9688 100.051 13.0391ZM97.2266 16.2266V12.6172C97.2266 11.9375 97.1875 11.3398 97.1094 10.8242C97.0312 10.3008 96.9141 9.85938 96.7578 9.5C96.6094 9.13281 96.4219 8.83594 96.1953 8.60938C95.9688 8.375 95.7109 8.20703 95.4219 8.10547C95.1328 7.99609 94.8086 7.94141 94.4492 7.94141C94.0117 7.94141 93.6211 8.02734 93.2773 8.19922C92.9336 8.36328 92.6445 8.62891 92.4102 8.99609C92.1758 9.36328 91.9961 9.84766 91.8711 10.4492C91.7539 11.043 91.6953 11.7656 91.6953 12.6172V16.2266C91.6953 16.9141 91.7344 17.5195 91.8125 18.043C91.8906 18.5664 92.0078 19.0156 92.1641 19.3906C92.3203 19.7578 92.5078 20.0625 92.7266 20.3047C92.9531 20.5391 93.2109 20.7109 93.5 20.8203C93.7969 20.9297 94.1211 20.9844 94.4727 20.9844C94.918 20.9844 95.3125 20.8984 95.6562 20.7266C96 20.5547 96.2891 20.2812 96.5234 19.9062C96.7578 19.5234 96.9336 19.0273 97.0508 18.418C97.168 17.8086 97.2266 17.0781 97.2266 16.2266ZM110.281 5.87891V23H107.457V9.23047L103.273 10.6484V8.31641L109.941 5.87891H110.281ZM118.484 20.7734H118.719C119.797 20.7734 120.695 20.6328 121.414 20.3516C122.141 20.0625 122.719 19.6641 123.148 19.1562C123.578 18.6484 123.887 18.0508 124.074 17.3633C124.262 16.6758 124.355 15.9297 124.355 15.125V12.1836C124.355 11.4883 124.281 10.8789 124.133 10.3555C123.992 9.82422 123.789 9.38281 123.523 9.03125C123.266 8.67188 122.965 8.40234 122.621 8.22266C122.285 8.04297 121.922 7.95312 121.531 7.95312C121.102 7.95312 120.715 8.05078 120.371 8.24609C120.035 8.43359 119.75 8.69531 119.516 9.03125C119.289 9.35938 119.113 9.74609 118.988 10.1914C118.871 10.6289 118.812 11.0977 118.812 11.5977C118.812 12.0664 118.867 12.5195 118.977 12.957C119.094 13.3867 119.266 13.7695 119.492 14.1055C119.719 14.4414 120.004 14.707 120.348 14.9023C120.691 15.0977 121.094 15.1953 121.555 15.1953C121.992 15.1953 122.395 15.1133 122.762 14.9492C123.129 14.7773 123.449 14.5469 123.723 14.2578C123.996 13.9688 124.211 13.6445 124.367 13.2852C124.523 12.9258 124.609 12.5586 124.625 12.1836L125.703 12.5117C125.703 13.1055 125.578 13.6914 125.328 14.2695C125.086 14.8398 124.746 15.3633 124.309 15.8398C123.879 16.3086 123.375 16.6836 122.797 16.9648C122.227 17.2461 121.605 17.3867 120.934 17.3867C120.121 17.3867 119.402 17.2344 118.777 16.9297C118.16 16.6172 117.645 16.1953 117.23 15.6641C116.824 15.1328 116.52 14.5234 116.316 13.8359C116.113 13.1484 116.012 12.4258 116.012 11.668C116.012 10.8477 116.137 10.0781 116.387 9.35938C116.637 8.64062 117 8.00781 117.477 7.46094C117.953 6.90625 118.531 6.47656 119.211 6.17188C119.898 5.85937 120.676 5.70312 121.543 5.70312C122.465 5.70312 123.273 5.88281 123.969 6.24219C124.664 6.60156 125.25 7.09766 125.727 7.73047C126.203 8.36328 126.562 9.09766 126.805 9.93359C127.047 10.7695 127.168 11.668 127.168 12.6289V13.625C127.168 14.6328 127.078 15.6055 126.898 16.543C126.719 17.4727 126.426 18.3359 126.02 19.1328C125.621 19.9219 125.094 20.6172 124.438 21.2188C123.789 21.8125 122.992 22.2773 122.047 22.6133C121.109 22.9414 120.008 23.1055 118.742 23.1055H118.484V20.7734Z" fill="black"/>
<path d="M225.727 20.75V23H214.289V21.0664L219.844 15.0078C220.453 14.3203 220.934 13.7266 221.285 13.2266C221.637 12.7266 221.883 12.2773 222.023 11.8789C222.172 11.4727 222.246 11.0781 222.246 10.6953C222.246 10.1562 222.145 9.68359 221.941 9.27734C221.746 8.86328 221.457 8.53906 221.074 8.30469C220.691 8.0625 220.227 7.94141 219.68 7.94141C219.047 7.94141 218.516 8.07812 218.086 8.35156C217.656 8.625 217.332 9.00391 217.113 9.48828C216.895 9.96484 216.785 10.5117 216.785 11.1289H213.961C213.961 10.1367 214.188 9.23047 214.641 8.41016C215.094 7.58203 215.75 6.92578 216.609 6.44141C217.469 5.94922 218.504 5.70312 219.715 5.70312C220.855 5.70312 221.824 5.89453 222.621 6.27734C223.418 6.66016 224.023 7.20312 224.438 7.90625C224.859 8.60938 225.07 9.44141 225.07 10.4023C225.07 10.9336 224.984 11.4609 224.812 11.9844C224.641 12.5078 224.395 13.0312 224.074 13.5547C223.762 14.0703 223.391 14.5898 222.961 15.1133C222.531 15.6289 222.059 16.1523 221.543 16.6836L217.852 20.75H225.727ZM239.051 13.0391V15.8281C239.051 17.1641 238.918 18.3047 238.652 19.25C238.395 20.1875 238.02 20.9492 237.527 21.5352C237.035 22.1211 236.445 22.5508 235.758 22.8242C235.078 23.0977 234.316 23.2344 233.473 23.2344C232.801 23.2344 232.176 23.1484 231.598 22.9766C231.027 22.8047 230.512 22.5352 230.051 22.168C229.59 21.8008 229.195 21.3281 228.867 20.75C228.547 20.1641 228.297 19.4648 228.117 18.6523C227.945 17.8398 227.859 16.8984 227.859 15.8281V13.0391C227.859 11.6953 227.992 10.5625 228.258 9.64062C228.523 8.71094 228.902 7.95703 229.395 7.37891C229.887 6.79297 230.473 6.36719 231.152 6.10156C231.84 5.83594 232.605 5.70312 233.449 5.70312C234.129 5.70312 234.754 5.78906 235.324 5.96094C235.902 6.125 236.418 6.38672 236.871 6.74609C237.332 7.10547 237.723 7.57422 238.043 8.15234C238.371 8.72266 238.621 9.41406 238.793 10.2266C238.965 11.0312 239.051 11.9688 239.051 13.0391ZM236.227 16.2266V12.6172C236.227 11.9375 236.188 11.3398 236.109 10.8242C236.031 10.3008 235.914 9.85938 235.758 9.5C235.609 9.13281 235.422 8.83594 235.195 8.60938C234.969 8.375 234.711 8.20703 234.422 8.10547C234.133 7.99609 233.809 7.94141 233.449 7.94141C233.012 7.94141 232.621 8.02734 232.277 8.19922C231.934 8.36328 231.645 8.62891 231.41 8.99609C231.176 9.36328 230.996 9.84766 230.871 10.4492C230.754 11.043 230.695 11.7656 230.695 12.6172V16.2266C230.695 16.9141 230.734 17.5195 230.812 18.043C230.891 18.5664 231.008 19.0156 231.164 19.3906C231.32 19.7578 231.508 20.0625 231.727 20.3047C231.953 20.5391 232.211 20.7109 232.5 20.8203C232.797 20.9297 233.121 20.9844 233.473 20.9844C233.918 20.9844 234.312 20.8984 234.656 20.7266C235 20.5547 235.289 20.2812 235.523 19.9062C235.758 19.5234 235.934 19.0273 236.051 18.418C236.168 17.8086 236.227 17.0781 236.227 16.2266ZM253.008 20.75V23H241.57V21.0664L247.125 15.0078C247.734 14.3203 248.215 13.7266 248.566 13.2266C248.918 12.7266 249.164 12.2773 249.305 11.8789C249.453 11.4727 249.527 11.0781 249.527 10.6953C249.527 10.1562 249.426 9.68359 249.223 9.27734C249.027 8.86328 248.738 8.53906 248.355 8.30469C247.973 8.0625 247.508 7.94141 246.961 7.94141C246.328 7.94141 245.797 8.07812 245.367 8.35156C244.938 8.625 244.613 9.00391 244.395 9.48828C244.176 9.96484 244.066 10.5117 244.066 11.1289H241.242C241.242 10.1367 241.469 9.23047 241.922 8.41016C242.375 7.58203 243.031 6.92578 243.891 6.44141C244.75 5.94922 245.785 5.70312 246.996 5.70312C248.137 5.70312 249.105 5.89453 249.902 6.27734C250.699 6.66016 251.305 7.20312 251.719 7.90625C252.141 8.60938 252.352 9.44141 252.352 10.4023C252.352 10.9336 252.266 11.4609 252.094 11.9844C251.922 12.5078 251.676 13.0312 251.355 13.5547C251.043 14.0703 250.672 14.5898 250.242 15.1133C249.812 15.6289 249.34 16.1523 248.824 16.6836L245.133 20.75H253.008ZM266.332 13.0391V15.8281C266.332 17.1641 266.199 18.3047 265.934 19.25C265.676 20.1875 265.301 20.9492 264.809 21.5352C264.316 22.1211 263.727 22.5508 263.039 22.8242C262.359 23.0977 261.598 23.2344 260.754 23.2344C260.082 23.2344 259.457 23.1484 258.879 22.9766C258.309 22.8047 257.793 22.5352 257.332 22.168C256.871 21.8008 256.477 21.3281 256.148 20.75C255.828 20.1641 255.578 19.4648 255.398 18.6523C255.227 17.8398 255.141 16.8984 255.141 15.8281V13.0391C255.141 11.6953 255.273 10.5625 255.539 9.64062C255.805 8.71094 256.184 7.95703 256.676 7.37891C257.168 6.79297 257.754 6.36719 258.434 6.10156C259.121 5.83594 259.887 5.70312 260.73 5.70312C261.41 5.70312 262.035 5.78906 262.605 5.96094C263.184 6.125 263.699 6.38672 264.152 6.74609C264.613 7.10547 265.004 7.57422 265.324 8.15234C265.652 8.72266 265.902 9.41406 266.074 10.2266C266.246 11.0312 266.332 11.9688 266.332 13.0391ZM263.508 16.2266V12.6172C263.508 11.9375 263.469 11.3398 263.391 10.8242C263.312 10.3008 263.195 9.85938 263.039 9.5C262.891 9.13281 262.703 8.83594 262.477 8.60938C262.25 8.375 261.992 8.20703 261.703 8.10547C261.414 7.99609 261.09 7.94141 260.73 7.94141C260.293 7.94141 259.902 8.02734 259.559 8.19922C259.215 8.36328 258.926 8.62891 258.691 8.99609C258.457 9.36328 258.277 9.84766 258.152 10.4492C258.035 11.043 257.977 11.7656 257.977 12.6172V16.2266C257.977 16.9141 258.016 17.5195 258.094 18.043C258.172 18.5664 258.289 19.0156 258.445 19.3906C258.602 19.7578 258.789 20.0625 259.008 20.3047C259.234 20.5391 259.492 20.7109 259.781 20.8203C260.078 20.9297 260.402 20.9844 260.754 20.9844C261.199 20.9844 261.594 20.8984 261.938 20.7266C262.281 20.5547 262.57 20.2812 262.805 19.9062C263.039 19.5234 263.215 19.0273 263.332 18.418C263.449 17.8086 263.508 17.0781 263.508 16.2266Z" fill="black"/>
<path d="M364.727 19.75V22H353.289V20.0664L358.844 14.0078C359.453 13.3203 359.934 12.7266 360.285 12.2266C360.637 11.7266 360.883 11.2773 361.023 10.8789C361.172 10.4727 361.246 10.0781 361.246 9.69531C361.246 9.15625 361.145 8.68359 360.941 8.27734C360.746 7.86328 360.457 7.53906 360.074 7.30469C359.691 7.0625 359.227 6.94141 358.68 6.94141C358.047 6.94141 357.516 7.07813 357.086 7.35156C356.656 7.625 356.332 8.00391 356.113 8.48828C355.895 8.96484 355.785 9.51172 355.785 10.1289H352.961C352.961 9.13672 353.188 8.23047 353.641 7.41016C354.094 6.58203 354.75 5.92578 355.609 5.44141C356.469 4.94922 357.504 4.70312 358.715 4.70312C359.855 4.70312 360.824 4.89453 361.621 5.27734C362.418 5.66016 363.023 6.20312 363.438 6.90625C363.859 7.60938 364.07 8.44141 364.07 9.40234C364.07 9.93359 363.984 10.4609 363.812 10.9844C363.641 11.5078 363.395 12.0312 363.074 12.5547C362.762 13.0703 362.391 13.5898 361.961 14.1133C361.531 14.6289 361.059 15.1523 360.543 15.6836L356.852 19.75H364.727ZM378.051 12.0391V14.8281C378.051 16.1641 377.918 17.3047 377.652 18.25C377.395 19.1875 377.02 19.9492 376.527 20.5352C376.035 21.1211 375.445 21.5508 374.758 21.8242C374.078 22.0977 373.316 22.2344 372.473 22.2344C371.801 22.2344 371.176 22.1484 370.598 21.9766C370.027 21.8047 369.512 21.5352 369.051 21.168C368.59 20.8008 368.195 20.3281 367.867 19.75C367.547 19.1641 367.297 18.4648 367.117 17.6523C366.945 16.8398 366.859 15.8984 366.859 14.8281V12.0391C366.859 10.6953 366.992 9.5625 367.258 8.64062C367.523 7.71094 367.902 6.95703 368.395 6.37891C368.887 5.79297 369.473 5.36719 370.152 5.10156C370.84 4.83594 371.605 4.70312 372.449 4.70312C373.129 4.70312 373.754 4.78906 374.324 4.96094C374.902 5.125 375.418 5.38672 375.871 5.74609C376.332 6.10547 376.723 6.57422 377.043 7.15234C377.371 7.72266 377.621 8.41406 377.793 9.22656C377.965 10.0312 378.051 10.9688 378.051 12.0391ZM375.227 15.2266V11.6172C375.227 10.9375 375.188 10.3398 375.109 9.82422C375.031 9.30078 374.914 8.85938 374.758 8.5C374.609 8.13281 374.422 7.83594 374.195 7.60938C373.969 7.375 373.711 7.20703 373.422 7.10547C373.133 6.99609 372.809 6.94141 372.449 6.94141C372.012 6.94141 371.621 7.02734 371.277 7.19922C370.934 7.36328 370.645 7.62891 370.41 7.99609C370.176 8.36328 369.996 8.84766 369.871 9.44922C369.754 10.043 369.695 10.7656 369.695 11.6172V15.2266C369.695 15.9141 369.734 16.5195 369.812 17.043C369.891 17.5664 370.008 18.0156 370.164 18.3906C370.32 18.7578 370.508 19.0625 370.727 19.3047C370.953 19.5391 371.211 19.7109 371.5 19.8203C371.797 19.9297 372.121 19.9844 372.473 19.9844C372.918 19.9844 373.312 19.8984 373.656 19.7266C374 19.5547 374.289 19.2812 374.523 18.9062C374.758 18.5234 374.934 18.0273 375.051 17.418C375.168 16.8086 375.227 16.0781 375.227 15.2266ZM392.008 19.75V22H380.57V20.0664L386.125 14.0078C386.734 13.3203 387.215 12.7266 387.566 12.2266C387.918 11.7266 388.164 11.2773 388.305 10.8789C388.453 10.4727 388.527 10.0781 388.527 9.69531C388.527 9.15625 388.426 8.68359 388.223 8.27734C388.027 7.86328 387.738 7.53906 387.355 7.30469C386.973 7.0625 386.508 6.94141 385.961 6.94141C385.328 6.94141 384.797 7.07813 384.367 7.35156C383.938 7.625 383.613 8.00391 383.395 8.48828C383.176 8.96484 383.066 9.51172 383.066 10.1289H380.242C380.242 9.13672 380.469 8.23047 380.922 7.41016C381.375 6.58203 382.031 5.92578 382.891 5.44141C383.75 4.94922 384.785 4.70312 385.996 4.70312C387.137 4.70312 388.105 4.89453 388.902 5.27734C389.699 5.66016 390.305 6.20312 390.719 6.90625C391.141 7.60938 391.352 8.44141 391.352 9.40234C391.352 9.93359 391.266 10.4609 391.094 10.9844C390.922 11.5078 390.676 12.0312 390.355 12.5547C390.043 13.0703 389.672 13.5898 389.242 14.1133C388.812 14.6289 388.34 15.1523 387.824 15.6836L384.133 19.75H392.008ZM401.922 4.87891V22H399.098V8.23047L394.914 9.64844V7.31641L401.582 4.87891H401.922Z" fill="black"/>
</svg>
